<?xml version="1.0" encoding="UTF-8"?>
<svg id="Ebene_2" data-name="Ebene 2" xmlns="http://www.w3.org/2000/svg" xmlns:xlink="http://www.w3.org/1999/xlink" viewBox="0 0 348.86 62.47">
  <defs>
    <style>
      .cls-1 {
        fill: url(#Neues_Verlaufsfeld_1-3);
      }

      .cls-2 {
        fill: url(#Unbenannter_Verlauf_77);
      }

      .cls-3 {
        fill: url(#Neues_Verlaufsfeld_1);
      }

      .cls-4 {
        fill: url(#Neues_Verlaufsfeld_1-2);
      }

      .cls-5 {
        fill: url(#Neues_Verlaufsfeld_1-4);
      }

      .cls-6 {
        fill: url(#Neues_Verlaufsfeld_1-5);
      }
    </style>
    <linearGradient id="Neues_Verlaufsfeld_1" data-name="Neues Verlaufsfeld 1" x1="61.79" y1="1.36" x2="61.79" y2="62.47" gradientUnits="userSpaceOnUse">
      <stop offset="0" stop-color="#2e0886"/>
      <stop offset="1" stop-color="#190d39"/>
    </linearGradient>
    <linearGradient id="Neues_Verlaufsfeld_1-2" data-name="Neues Verlaufsfeld 1" x1="15.42" y1="1.35" x2="15.42" y2="61.25" xlink:href="#Neues_Verlaufsfeld_1"/>
    <linearGradient id="Neues_Verlaufsfeld_1-3" data-name="Neues Verlaufsfeld 1" x1="130.38" y1="1.35" x2="130.38" y2="61.35" xlink:href="#Neues_Verlaufsfeld_1"/>
    <linearGradient id="Neues_Verlaufsfeld_1-4" data-name="Neues Verlaufsfeld 1" x1="265.25" y1="1.33" x2="265.25" y2="61.33" xlink:href="#Neues_Verlaufsfeld_1"/>
    <linearGradient id="Neues_Verlaufsfeld_1-5" data-name="Neues Verlaufsfeld 1" x1="321.86" y1="1.33" x2="321.86" y2="61.33" xlink:href="#Neues_Verlaufsfeld_1"/>
    <linearGradient id="Unbenannter_Verlauf_77" data-name="Unbenannter Verlauf 77" x1="202.64" y1="62.3" x2="202.64" y2="0" gradientUnits="userSpaceOnUse">
      <stop offset="0" stop-color="#190d39"/>
      <stop offset="1" stop-color="#2e0885"/>
    </linearGradient>
  </defs>
  <path class="cls-3" d="M85.76,1.36h-10.01v40.14c0,6.48-5.26,11.73-11.73,11.73h-4.45c-6.48,0-11.73-5.25-11.73-11.73V1.36h-10.02v38.63h.02c-.02.29-.02.58-.02.87,0,11.94,9.68,21.61,21.61,21.61h4.72c5.97,0,11.37-2.42,15.28-6.33s6.33-9.31,6.33-15.28c0-.29-.01-.58-.02-.87h.02V1.36Z"/>
  <polygon class="cls-4" points="10.72 53.23 10.72 1.35 0 1.35 0 53.23 0 61.25 10.72 61.25 30.84 61.25 30.84 53.23 10.72 53.23"/>
  <polygon class="cls-1" points="151.94 1.35 130.25 48.31 108.81 1.35 97.99 1.35 97.99 61.35 108.81 61.35 108.81 20.67 126.91 61.35 133.89 61.35 151.94 21.21 151.94 61.35 162.76 61.35 162.76 1.35 151.94 1.35"/>
  <path class="cls-5" d="M274.97,61.33h11.66l-14.77-24.41c7.96-1.88,13.89-9.01,13.89-17.55,0-9.54-7.42-17.33-16.8-17.97v-.07h-25.07v28.08h-.01v8h.01v23.92h8.98v-23.92h8l14.11,23.92ZM275.46,19.37c0,5.53-4.49,10.03-10.03,10.03h-12.57V9.35h12.57c5.54,0,10.03,4.49,10.03,10.02Z"/>
  <path class="cls-6" d="M338.85,61.33h10.01L326.62,1.33h-9.51l-22.25,60h10.02l4.12-11.9h25.73l4.12,11.9ZM321.86,13.27l10.02,28.21v.03s-20.04,0-20.04,0v-.03s10.02-28.21,10.02-28.21Z"/>
  <path class="cls-2" d="M202.64,0c-17.2,0-31.15,13.95-31.15,31.15s13.95,31.15,31.15,31.15,31.15-13.95,31.15-31.15S219.84,0,202.64,0ZM203.2,53.43c-11.96,0-21.66-9.7-21.66-21.66,0-10.09,6.91-18.58,16.25-20.98-4.23,3.94-6.9,9.54-6.9,15.78,0,11.91,9.65,21.56,21.56,21.56,2.01,0,3.96-.28,5.81-.8-3.9,3.77-9.21,6.1-15.06,6.1Z"/>
</svg>
