<svg version="1.2" xmlns="http://www.w3.org/2000/svg" viewBox="0 0 1245 220" width="1245" height="220">
	<style>
		.s0 { fill: #000000 } 
	</style>
	<path fill-rule="evenodd" class="s0" d="m1102 145.38h96v29h-96z"/>
	<path fill-rule="evenodd" class="s0" d="m0 187.38h111v29h-111z"/>
	<path class="s0" d="m898 35.28q0 0-0.01 0c-5.35 9.38-8.4 20.22-8.4 31.79 0 11.57 3 22.19 8.24 31.5q0.07 0.16 0.18 0.32c0 0 0-63.61-0.01-63.61zm58.3-32.27q-0.64-0.05-1.27-0.04c-21.81 0-41.04 10.94-52.59 27.62-0.18 0.21-0.32 0.46-0.5 0.71 0 0.04-0.04 0.04-0.04 0.07h44.35c20.01 0 36.62 16.23 36.21 36.23-0.41 20-16.14 34.77-35.51 34.77h-45.04l0.04 0.07c0.14 0.21 0.32 0.46 0.5 0.67 5.77 8.39 13.49 15.33 22.49 20.11 8.96 4.82 19.23 7.54 30.1 7.54 0.28 0 0.53 0 0.81-0.04q1.58 0 3.12-0.11c2.55-0.11 5.06-0.43 7.54-0.89 0.18-0.04 0.32-0.07 0.5-0.11 29.57-5.6 51.91-31.59 51.91-62.78 0-34.85-27.9-63.17-62.61-63.85zm-58.3 32.56v63c0.91 0.11 0.98 0.21 4 0.32v-63.61c-3.02 0.07-3.09 0.18-4 0.29z"/>
	<path fill-rule="evenodd" class="s0" d="m135.46 2.38h35.54v139h-35.54z"/>
	<path fill-rule="evenodd" class="s0" d="m270 2.38h35.51v139h-35.51z"/>
	<path class="s0" d="m305.51 138.86c0 21.97-8.58 41.84-22.45 56.23-13.87 14.39-33.02 23.29-54.2 23.29h-16.74c-42.32 0-76.65-35.58-76.65-79.52q0.01-1.6 0.07-3.2c0.78-20.72 9.19-39.34 22.38-52.99q5.96-6.19 13.09-10.89v68.28c0 24.47 18.57 44.31 41.47 44.31h15.92c22.95 0 41.61-19.32 41.61-43.16v-69.4c20.54 13.54 34.41 36.98 35.44 63.84q0.07 1.6 0.07 3.2z"/>
	<path fill-rule="evenodd" class="s0" d="m0 2.38h39v214h-39z"/>
	<path fill-rule="evenodd" class="s0" d="m388 2.4v68.89 145.09h-39v-214h38.99l0.01 0.02z"/>
	<path fill-rule="evenodd" class="s0" d="m580 2.38v214h-39v-213.96l0.02-0.04h38.98z"/>
	<path fill-rule="evenodd" class="s0" d="m541 2.33v70.83l-0.02 0.04-64.02 143.18h-24.74l-64.22-145.14v-68.91l76.06 167.51 76.92-167.47 0.02-0.04z"/>
	<path class="s0" d="m740.73 1.39q-8.62-1.39-17.62-1.39c-60.65 0-109.84 49.16-109.84 109.84 0 60.68 49.2 109.84 109.84 109.84 37.46 0 70.56-18.77 90.4-47.41 12.27-17.73 19.48-39.24 19.48-62.43 0-54.69-39.96-100-92.26-108.45zm-17.63 204.03c-52.83 0-95.64-42.85-95.64-95.68 0-49.05 36.89-89.51 84.48-95-24.54 16.87-40.6 45.16-40.6 77.2 0 51.8 41.95 93.79 93.75 93.79 6.31 0 12.41-0.61 18.37-1.78-16.45 13.45-37.46 21.48-60.36 21.47z"/>
	<path class="s0" d="m818.78 110.17c0 29.93-13.73 56.65-35.28 74.2h-0.04c-11.28 2.23-23.07 2.41-35.86 0.31-31.52-5.19-58.29-26.33-69.53-56.23-17.3-46.02 0.38-90.27 33.86-113.28q5.47-0.68 11.17-0.68c52.83 0 95.68 42.85 95.68 95.68z"/>
	<path class="s0" d="m832.98 110.28c0 23.19-7.21 44.7-19.48 62.43-9.1 5.49-19.23 9.49-30 11.67h-0.04c-11.28 2.23-23.07 2.41-35.86 0.31-31.52-5.19-58.29-26.33-69.53-56.23-17.3-46.02 0.38-90.27 33.86-113.28 8.63-5.99 18.37-10.56 28.79-13.34 52.3 8.45 92.26 53.76 92.26 108.45z"/>
	<path fill-rule="evenodd" class="s0" d="m870 2.38h89v29h-89z"/>
	<path fill-rule="evenodd" class="s0" d="m870 102.38h89v29h-89z"/>
	<path fill-rule="evenodd" class="s0" d="m870 2.38h32v214h-32z"/>
	<path fill-rule="evenodd" class="s0" d="m1022.56 217.38h-41.64l-54.87-93h40.24l56.27 93z"/>
	<path fill-rule="evenodd" class="s0" d="m1148 2.38v42.58l-35.7 100.62-10.1 28.14-14.76 42.66h-35.74l79.36-214h16.94z"/>
	<path fill-rule="evenodd" class="s0" d="m1244.3 216.38h-35.7l-14.77-42.66-10.09-28.14-35.74-100.62v-42.58h16.98l79.32 214z"/>
	<path class="s0" d="m118.63 249.38l30.91 77.42 30.91-77.42h18.55v96h-14v-38.3l1.82-40.38-31.04 78.68h-11.05l-30.98-78.48 3.25 40.18v38.3h-14v-96z"/>
	<path class="s0" d="m305.66 320.38h-40.03l-8.99 25h-13.2l36.66-96h11.08l36.73 96h-13.13zm-36.36-11h32.77l-16.42-45.08z"/>
	<path class="s0" d="m407.56 306.38h-22.56v39h-14v-96h32.38q16.53 0 25.42 7.38 8.9 7.38 8.9 21.49 0 8.97-4.94 15.63-4.94 6.66-13.74 9.96l22.97 40.75v0.79h-13.59c0 0-20.85-39-20.84-39zm-22.56-11h19.2q9.31 0 14.81-4.82 5.5-4.82 5.5-12.92 0-8.81-5.24-13.5-5.24-4.7-15.14-4.76h-19.14c0 0 0 36 0.01 36z"/>
	<path class="s0" d="m512.08 299.82l-10.08 12.2v33.35h-14v-96h14v46.55l40.54-46.55h15.07l-37.21 41.47 40.13 54.53h-14.94c0 0-33.51-45.56-33.51-45.55z"/>
	<path class="s0" d="m659 299.38h-42v35h50v11h-61v-96h60v10h-46v29h39z"/>
	<path class="s0" d="m781 259.38h-29v86h-14v-86h-32v-11h75z"/>
	<path class="s0" d="m841 345.38h-14v-96h14z"/>
	<path class="s0" d="m973 345.38h-15.98l-48.02-74.92v74.92h-14v-96h15.41l48.59 73.4v-73.4h14z"/>
	<path class="s0" d="m1063 307.38h22v19.34q-3.74 3.57-9.44 5.07-5.72 1.5-13.32 1.5-12.9 0-20.68-8.34-0.34-0.36-0.67-0.73-7.89-9.06-7.89-24.43v-7.46q0.07-16.12 7.08-24.63 4.46-5.4 11.57-7.36 4.08-1.14 9.04-1.14 20.43 0 24.24 18.18h15.07q-2.16-13.88-11.82-21.44-9.66-7.56-25.51-7.56h-0.11q-12.62 0.01-21.53 5.06-0.36 0.21-0.7 0.41-4.27 2.54-7.66 6.27-6.99 7.7-9.4 19.5-0.03 0.14-0.05 0.27-1.22 6.11-1.22 13.31v8.43q0.18 13.05 5.39 22.97 5.24 10 14.84 15.41 9.6 5.41 21.97 5.41 0.91 0.01 1.8-0.02 11.12-0.23 19.64-3.38 9.22-3.41 14.36-10.28v-34.36h-37z"/>
	<path class="s0" d="m1066 334.78v10.47q-1.99 0.14-4.09 0.15-18.1 0-29-12.03-10.75-11.86-10.91-31.61v-9.32q0-6.45 1.22-12.13 0.02-0.14 0.05-0.26 1.27-5.8 3.81-10.8 4.76-9.38 13.25-14.68 0.34-0.21 0.7-0.41 8.91-4.98 21.53-5c-0.13 3.11 0.37 6.25 0.44 9.55v0.28q-6.36 0-11.35 2.22-4.9 2.16-8.46 6.46-7.19 8.69-7.19 24.72v9.43q0 13.68 5.56 22.32 0.6 0.95 1.28 1.84 6.84 8.98 19.13 8.98c1.41 0 2.74-0.08 4.03-0.18z"/>
</svg>
